<svg version="1.2" xmlns="http://www.w3.org/2000/svg" viewBox="0 0 2622 512" width="2622" height="512"><style>.a{fill:#d80027}.b{fill:#ffda44}.c{fill:#36000a}.d{fill:#f5a23d}.e{fill:#c10023}.f{fill:#dd1a2a}</style><path class="a" d="m1056 313c0-37 0-74 0.2-111.6 0.4-0.8 0.6-1 1.3-1.3 169.3 0 338.2 0 507 0 0.8 0 1.7 0.1 2.6 0.3 0.4 0.3 0.6 0.5 0.9 0.6 0 37 0 74-0.2 111.6-0.4 0.8-0.6 1-1.3 1.2-169.3 0.1-338.1 0.1-507 0.1-0.8 0-1.7-0.1-2.6-0.3-0.4-0.3-0.7-0.5-0.9-0.6z"/><path  d="m1567 200.2c-0.8 0-1.7-0.1-2.5-0.1-168.8 0-337.7 0-507.3 0-0.9-0.1-1-0.1-1.2-0.1 0-37.4 0-74.7 0.5-112.5 170.8-0.5 341.1-0.5 511.5-0.5 0 37.4 0 74.7-0.3 112.6-0.4 0.5-0.5 0.6-0.7 0.6z"/><path class="b" d="m1057 313.8c0.8 0 1.7 0.1 2.5 0.1 168.9 0 337.7 0 507.3 0 0.9 0.1 1 0.1 1.2 0.1 0 37.4 0 74.7-0.5 112.5-170.8 0.5-341.1 0.5-511.5 0.5 0-37.4 0-74.7 0.3-112.6 0.4-0.5 0.5-0.6 0.7-0.6z"/><path class="c" d="m1056 86.3c170.4-0.3 340.7-0.3 511.5-0.3 0.5 0 0.5 0.5 0.5 0.8-170.4 0.2-340.7 0.2-511.5 0.2-0.5 0-0.5-0.5-0.5-0.7z"/><path class="d" d="m1568 427.8c-170.4 0.2-340.7 0.2-511.5 0.2-0.5 0-0.5-0.5-0.5-0.8 170.4-0.2 340.7-0.2 511.5-0.2 0.5 0 0.5 0.5 0.5 0.7z"/><path class="e" d="m1056 200.3c0.2-0.3 0.3-0.3 0.8-0.2 0 0.3-0.2 0.5-0.6 0.8-0.2 0.1-0.2-0.4-0.2-0.7z"/><path class="e" d="m1567.1 200.4c0.1-0.2 0.2-0.3 0.6-0.4 0.3 0 0.3 0.5 0.3 0.7-0.3 0.2-0.5 0-0.9-0.3z"/><path class="f" d="m1056.9 313.6c-0.1 0.2-0.2 0.3-0.6 0.4-0.3 0-0.3-0.5-0.3-0.8 0.2-0.1 0.5 0.1 0.9 0.4z"/><path class="f" d="m1568 313.8c-0.2 0.2-0.3 0.2-0.8 0.1 0-0.3 0.2-0.5 0.6-0.8 0.2-0.1 0.2 0.4 0.2 0.6z"/></svg>